<svg width="46" height="32" viewBox="0 0 46 32" fill="none" xmlns="http://www.w3.org/2000/svg">
<path d="M16.0143 9.3212H20.0643C20.2893 9.3212 20.5143 9.09926 20.5143 8.87733V5.54833C20.5143 5.3264 20.2893 5.10447 20.0643 5.10447H16.0143C15.7893 5.10447 15.5643 5.3264 15.5643 5.54833V9.09926C15.5643 9.09926 15.7893 9.3212 16.0143 9.3212ZM21.4143 14.4257H25.4643C25.6893 14.4257 25.9143 14.2037 25.9143 13.9818V10.4309C25.9143 10.2089 25.6893 9.987 25.4643 9.987H21.4143C21.1893 9.987 20.9643 10.2089 20.9643 10.4309V13.9818C20.9643 14.2037 21.1893 14.4257 21.4143 14.4257ZM21.4143 9.3212H25.4643C25.6893 9.3212 25.9143 9.09926 25.9143 8.87733V5.54833L25.4643 5.10447H21.4143C21.1893 5.10447 20.9643 5.3264 20.9643 5.54833V9.09926C20.9643 9.09926 21.1893 9.3212 21.4143 9.3212ZM27.0393 14.4257H31.0893C31.3143 14.4257 31.5393 14.2037 31.5393 13.9818V10.4309C31.5393 10.2089 31.3143 9.987 31.0893 9.987H27.0393C26.8143 9.987 26.5893 10.2089 26.5893 10.4309V13.9818C26.5893 14.2037 26.8143 14.4257 27.0393 14.4257ZM21.4143 4.21673H25.4643C25.6893 4.21673 25.9143 3.9948 25.9143 3.77287V0.443867C25.9143 0.221934 25.6893 0 25.4643 0H21.4143C21.1893 0 20.9643 0.221934 20.9643 0.443867V3.9948C20.9643 4.21673 21.1893 4.21673 21.4143 4.21673ZM4.76429 14.4257H8.81429C9.03929 14.4257 9.26429 14.2037 9.26429 13.9818V10.4309C9.26429 10.2089 9.03929 9.987 8.81429 9.987H4.76429C4.53929 9.987 4.31429 10.2089 4.31429 10.4309V13.9818L4.76429 14.4257ZM45.2643 12.2063C44.1393 11.5405 42.7893 11.0967 41.6643 11.3186C40.9893 11.3186 40.3143 11.3186 39.8643 11.5405C39.4143 9.54313 38.2893 7.76766 36.7143 6.87993L36.0393 6.43606L35.5893 7.10186C34.9143 7.54573 34.4643 8.43346 34.2393 9.54313C33.7893 11.3186 34.0143 13.0941 34.9143 14.4257C33.7893 14.8695 32.6643 15.0915 31.5393 15.3134H2.06429C1.38929 15.3134 0.714294 15.9792 0.714294 16.645C0.714294 19.3082 1.16429 21.7495 2.06429 24.1907C2.96429 26.632 4.53929 28.6294 6.56429 29.961C9.71429 31.5145 13.0893 32.1803 16.4643 31.9584C18.2643 31.9584 20.0643 31.7365 21.8643 31.5145C24.3393 31.0707 26.8143 30.1829 29.0643 28.8513C30.8643 27.7417 32.4393 26.4101 34.0143 24.8565C36.0393 22.4153 37.6143 19.7521 38.7393 16.645H39.1893C40.9893 16.645 42.7893 15.9792 44.1393 14.8695C44.8143 14.4257 45.2643 13.7599 45.4893 12.8721L45.7143 12.4283L45.2643 12.2063ZM10.3893 14.4257H14.2143C14.4393 14.4257 14.6643 14.2037 14.6643 13.9818V10.4309C14.6643 10.2089 14.4393 9.987 14.2143 9.987H10.3893C10.1643 9.987 9.93929 10.2089 9.93929 10.4309V13.9818C9.93929 14.2037 10.1643 14.4257 10.3893 14.4257ZM10.3893 9.3212H14.2143C14.4393 9.3212 14.6643 9.09926 14.6643 8.87733V5.54833C14.6643 5.3264 14.4393 5.10447 14.2143 5.10447H10.3893C10.1643 5.10447 9.93929 5.3264 9.93929 5.54833V9.09926C9.93929 9.09926 10.1643 9.3212 10.3893 9.3212ZM16.0143 14.4257H20.0643C20.2893 14.4257 20.5143 14.2037 20.5143 13.9818V10.4309C20.5143 10.2089 20.2893 9.987 20.0643 9.987H16.0143C15.7893 9.987 15.5643 10.2089 15.5643 10.4309V13.9818C15.5643 14.2037 15.7893 14.4257 16.0143 14.4257Z" fill="#DDDDDD"/>
</svg>
