<svg width="33" height="32" viewBox="0 0 33 32" fill="none" xmlns="http://www.w3.org/2000/svg">
<path d="M21.7621 21.3293C24.7061 21.3293 27.0927 18.9427 27.0927 15.9986C27.0927 13.0546 24.7061 10.668 21.7621 10.668C18.818 10.668 16.4314 13.0546 16.4314 15.9986C16.4314 18.9427 18.818 21.3293 21.7621 21.3293Z" fill="#DDDDDD"/>
<path d="M5.76196 26.6693C5.76196 29.6187 8.14996 32 11.094 32C14.038 32 16.4246 29.612 16.4246 26.6693V10.668H21.762L21.7633 10.6693C24.7086 10.6693 27.0953 8.28 27.0953 5.33733C27.0953 2.39467 24.7073 0 21.7633 0H11.094C8.14863 0 5.76196 2.388 5.76196 5.33067C5.76196 8.27333 8.14996 10.6613 11.094 10.6613C8.14863 10.6693 5.76196 13.056 5.76196 16C5.76196 18.944 8.14996 21.3307 11.094 21.3307C8.14863 21.3307 5.76196 23.7187 5.76196 26.6693Z" fill="#DDDDDD"/>
</svg>
