<svg width="24" height="32" viewBox="0 0 24 32" fill="none" xmlns="http://www.w3.org/2000/svg">
<path d="M7.69342 24.7477C7.69342 24.7477 6.50222 25.4584 8.54133 25.6999C11.0123 25.9886 12.2762 25.9475 14.9995 25.4186C14.9995 25.4186 15.7152 25.8791 16.7159 26.2786C10.6108 28.9634 2.89831 26.123 7.69342 24.7477ZM6.94741 21.244C6.94741 21.244 5.61065 22.2596 7.65218 22.4762C10.2917 22.755 12.3769 22.7786 15.9845 22.0654C15.9845 22.0654 16.483 22.5845 17.2679 22.8682C9.88658 25.0825 1.66466 23.0425 6.94741 21.244ZM13.237 15.3007C14.7411 17.0781 12.8415 18.6775 12.8415 18.6775C12.8415 18.6775 16.6614 16.6549 14.9073 14.1207C13.2685 11.7584 12.013 10.5846 18.8145 6.53698C18.8145 6.53698 8.1386 9.27151 13.237 15.3007ZM21.3109 27.3391C21.3109 27.3391 22.1928 28.0846 20.3393 28.6609C16.8154 29.7562 5.67251 30.0873 2.57686 28.7045C1.46451 28.2079 3.55092 27.5183 4.20717 27.3739C4.89132 27.2221 5.28313 27.2495 5.28313 27.2495C4.04584 26.3545 -2.71559 29.0057 1.84904 29.7649C14.2972 31.8361 24.54 28.8339 21.3109 27.3391ZM8.26597 17.6145C8.26597 17.6145 2.59748 18.9961 6.25841 19.4977C7.80381 19.7105 10.8849 19.662 13.7561 19.4155C16.1021 19.2127 18.4578 18.7808 18.4578 18.7808C18.4578 18.7808 17.6306 19.1442 17.0325 19.5637C11.2767 21.117 0.15808 20.3938 3.35927 18.8057C6.06675 17.4627 8.26718 17.6158 8.26718 17.6158L8.26597 17.6145ZM18.4348 23.4458C24.2865 20.3266 21.5802 17.3282 19.6927 17.7315C19.2293 17.8298 19.0231 17.9157 19.0231 17.9157C19.0231 17.9157 19.1954 17.6394 19.5229 17.5199C23.2578 16.1719 26.1315 21.4941 18.3171 23.6026C18.3171 23.6026 18.4081 23.5192 18.4348 23.4458ZM14.9061 0C14.9061 0 18.1461 3.32575 11.8323 8.44008C6.76909 12.5425 10.6775 14.8825 11.8299 17.5548C8.87491 14.819 6.70601 12.4106 8.16044 10.1689C10.2966 6.87802 16.2137 5.28361 14.9061 0ZM8.84095 31.8995C14.4573 32.268 23.0819 31.6954 23.2857 28.9683C23.2857 28.9683 22.8927 30.0027 18.6447 30.8229C13.8508 31.7489 7.93845 31.6406 4.4328 31.0469C4.4328 31.0469 5.1497 31.6568 8.84095 31.8995Z" fill="#DDDDDD"/>
</svg>
