<svg width="33" height="32" viewBox="0 0 33 32" fill="none" xmlns="http://www.w3.org/2000/svg">
<g clip-path="url(#clip0_434_1448)">
<path fill-rule="evenodd" clip-rule="evenodd" d="M24.8105 29.4912C22.0185 29.4912 20.2137 28.16 19.3337 26.4192L21.7817 25.0016C22.4265 26.0544 23.2633 26.8272 24.7465 26.8272C25.9913 26.8272 26.7865 26.2048 26.7865 25.3456C26.7865 24.0528 25.0617 23.5472 23.8441 23.0256C21.6745 22.1024 20.2345 20.9424 20.2345 18.4928C20.2345 16.2384 21.9529 14.52 24.6393 14.52C26.5497 14.52 27.9257 15.1856 28.9129 16.9248L26.5721 18.4288C26.0569 17.5056 25.4985 17.1408 24.6393 17.1408C23.7577 17.1408 23.1993 17.6992 23.1993 18.4288C23.1993 19.3312 23.7577 19.696 25.0473 20.2544C27.7497 21.4128 29.7945 22.3232 29.7945 25.3024C29.7945 28.0096 27.6681 29.4912 24.8105 29.4912ZM17.8857 24.9584C17.8857 28.0736 15.9673 29.72 13.3033 29.72C10.8969 29.72 9.45531 28.8 8.74651 27.2H8.70491L11.1513 25.4896C11.6233 26.3264 12.0489 26.92 13.0793 26.92C14.0681 26.92 14.6857 26.4192 14.6857 24.9168V14.4H17.8857V24.9584ZM0.285706 32H32.2857V0H0.285706V32Z" fill="#DDDDDD"/>
</g>
<defs>
<clipPath id="clip0_434_1448">
<rect width="32" height="32" fill="white" transform="translate(0.285706)"/>
</clipPath>
</defs>
</svg>
