<svg width="15" height="32" viewBox="0 0 15 32" fill="none" xmlns="http://www.w3.org/2000/svg">
<path d="M14.6596 14.193C14.588 13.3788 14.4486 12.5724 14.2429 11.7825C13.603 9.29652 12.5371 6.91651 11.0341 4.85341C10.6245 4.29062 10.182 3.75375 9.70914 3.24575C9.22178 2.72211 8.68116 2.24149 8.34123 1.58982C8.12622 1.17741 7.92144 0.759756 7.71257 0.344199C7.7095 0.474323 7.70131 0.604447 7.70131 0.733521C7.70131 0.603397 7.71052 0.473273 7.71257 0.343149L7.57947 0C7.55694 0.078704 7.54261 0.105988 7.54261 0.135371C7.5252 0.812225 7.15046 1.27186 6.68459 1.70106C6.16036 2.18377 5.67197 2.70742 5.16822 3.21322C5.18563 3.23631 5.20508 3.2594 5.22453 3.28248C5.20508 3.2594 5.18563 3.23736 5.16822 3.21322C3.67028 5.23224 2.35049 7.39083 1.57336 9.81386C1.34645 10.519 1.16954 11.2401 1.04401 11.9714C0.778826 13.5255 0.655961 15.0356 0.740943 16.6097C0.788042 17.4796 0.936505 18.3359 1.15766 19.1786C1.96141 22.2397 3.59348 24.7781 5.82453 26.9357C6.2392 27.3365 6.68664 27.7007 7.11974 28.0826L7.31121 28.7563L7.48936 29.8015L7.57435 30.8918C7.57332 31.1133 7.56411 31.3357 7.57742 31.5561C7.58049 31.6128 7.65319 31.6652 7.69312 31.7198L8.05455 31.8499L8.43031 32C8.40926 31.6768 8.38776 31.3535 8.36581 31.0304L8.36274 30.0754L8.49277 28.621L8.58697 28.3041L8.85625 27.814C9.18901 27.5391 9.54635 27.2904 9.85044 26.985C10.3992 26.432 10.947 25.8726 11.4375 25.2671C12.0765 24.4823 12.6223 23.6224 13.0634 22.7056C14.3156 20.0916 14.8951 17.1764 14.6647 14.2696L14.6586 14.1919L14.6596 14.193Z" fill="#DDDDDD"/>
</svg>
