<svg width="28" height="32" viewBox="0 0 28 32" fill="none" xmlns="http://www.w3.org/2000/svg">
<path d="M13.9941 32C13.5757 31.9994 13.1652 31.8859 12.806 31.6715L9.02135 29.3544C8.45606 29.0285 8.73399 28.9113 8.91828 28.8443C9.67292 28.5742 9.89778 28.4402 10.7002 27.9668C10.7863 27.9191 10.8964 27.9365 10.9827 27.9898L13.8191 29.6686C13.9246 29.7294 14.0732 29.7294 14.1713 29.6686L25.2562 23.0796C25.3616 23.017 25.4287 22.8906 25.4287 22.7624V9.41922C25.4287 9.28707 25.3616 9.16264 25.2538 9.09579L14.1738 2.3335C14.0682 2.26964 13.9294 2.26964 13.8239 2.3335L2.75113 9.09814C2.64085 9.16264 2.57142 9.29086 2.57142 9.41922V22.7624C2.57142 22.8919 2.64085 23.0134 2.74863 23.0759L5.60071 24.7882C7.28713 25.6599 8.28571 24.7761 8.28571 23.7446V10.6232C8.28571 10.4338 8.43192 10.2856 8.61399 10.2856H10.2432C10.4228 10.2856 10.5716 10.4336 10.5716 10.6232V23.7445C10.5716 26.0704 9.18921 27.4051 7.05735 27.4051C6.40335 27.4051 5.88613 27.4051 4.44649 26.6709L1.47621 24.9008C0.740777 24.4614 0.285706 23.6404 0.285706 22.7611V9.22793C0.285706 8.34822 0.740777 7.52907 1.47606 7.091L12.8107 0.315C13.5269 -0.105 14.4803 -0.105 15.1916 0.315L26.5237 7.091C27.2593 7.53021 27.7143 8.34993 27.7143 9.22793V22.7611C27.7143 23.6404 27.2593 24.4576 26.5237 24.9006L15.1916 31.6702C14.831 31.8855 14.4188 31.999 13.9988 31.9987L13.9941 32Z" fill="#DDDDDD"/>
<path d="M17.4959 22.857C12.8809 22.857 11.4955 20.5991 11.4955 18.6234C11.4955 18.4356 11.6418 18.2856 11.8213 18.2856H13.2871C13.4501 18.2856 13.5891 18.407 13.613 18.5724C13.8333 20.1154 14.8093 20.7974 17.4933 20.7974C19.8789 20.7974 20.8569 20.0584 20.8569 18.7486C20.8569 17.992 20.6096 17.4326 16.8993 17.0559C13.7973 16.7387 11.8787 16.0293 11.8787 13.4634C11.8787 11.0966 13.807 9.71414 17.0383 9.71414C20.3331 9.71414 22.4998 10.7141 22.6935 13.3448C22.7008 13.4403 22.6672 13.5326 22.6048 13.6051C22.5426 13.674 22.4564 13.7141 22.3653 13.7141H20.8946C20.7413 13.7141 20.6071 13.6026 20.5761 13.4489C20.2617 12.238 19.3639 11.7774 17.0358 11.7774C14.4297 11.7774 14.1254 12.6883 14.1254 13.3921C14.1254 14.2466 14.4848 14.4951 18.0036 14.9759C21.4865 15.4518 23.1416 16.1271 23.1416 18.6581C23.1416 21.2139 21.0839 22.8569 17.4934 22.8569L17.4959 22.857Z" fill="#DDDDDD"/>
</svg>
