<svg width="32" height="32" viewBox="0 0 32 32" fill="none" xmlns="http://www.w3.org/2000/svg">
<path d="M31.5731 19.3801C31.2299 18.9846 30.6436 19.0927 30.1904 19.1824C29.1008 19.3759 27.9153 19.6006 26.8601 19.1497C28.7447 16.1906 30.2275 12.9597 31.0569 9.54967C31.3586 8.25364 31.5917 6.92774 31.5474 5.5933C31.5145 4.84642 31.4101 4.05116 30.9511 3.43231C29.7992 1.93707 28.1839 0.861493 26.3553 0.372209C24.0889 -0.239527 21.658 -0.057429 19.4287 0.628284C19.2443 0.665273 19.0627 0.58276 18.8825 0.559998C16.8591 0.151699 14.6285 0.312458 12.8739 1.4776C10.7677 0.723601 8.50409 0.268356 6.26196 0.501669C4.59467 0.673808 2.92022 1.44488 1.9636 2.85756C0.753881 4.62022 0.58944 6.87083 0.78248 8.93651C1.17142 11.6794 1.84349 14.3795 2.69858 17.0128C3.26197 18.6546 3.88256 20.3091 4.88494 21.7431C5.39399 22.4473 6.07035 23.1572 6.98121 23.2682C7.79055 23.3664 8.52268 22.867 9.01886 22.2752C9.87682 21.2537 10.7591 20.2508 11.6742 19.2805C12.2719 19.5722 12.9211 19.74 13.5846 19.7898C13.2257 20.2138 12.9297 20.7672 12.3577 20.9336C11.587 21.2296 10.6847 21.1897 10.0055 21.7004C9.61371 21.9793 9.59512 22.5868 9.94688 22.9068C10.5832 23.5214 11.5212 23.6537 12.3678 23.7249C13.577 23.8116 14.7717 23.4188 15.6909 22.6323C15.6852 24.5301 15.6938 26.4336 15.9082 28.3214C16.0155 29.4268 16.4945 30.5279 17.3396 31.272C18.1361 31.9634 19.2714 32.1071 20.2824 31.9321C21.2748 31.7443 22.2943 31.4484 23.0693 30.7741C23.893 30.0514 24.2447 28.9602 24.4077 27.9131C24.6933 26.0364 24.9384 24.1538 25.1427 22.2667C27.2633 22.6223 29.6627 22.2183 31.2471 20.6776C31.586 20.3603 31.9077 19.8112 31.5731 19.3801ZM26.8672 1.53451C28.1398 2.01536 29.2709 2.85045 30.1203 3.90747C30.525 4.41251 30.5764 5.09111 30.6022 5.71138C30.6208 7.19093 30.3205 8.65198 29.9387 10.0746C29.197 12.7077 28.1094 15.2319 26.7042 17.5819C26.5677 17.8138 26.4163 18.0367 26.2509 18.2491C26.2336 18.1624 26.2165 18.0756 26.1994 17.9888C26.3725 17.5364 26.6256 17.1096 26.7242 16.6287C27.0731 15.273 26.7786 13.8773 26.6527 12.513C26.5212 11.2255 26.963 9.97219 26.9516 8.68755C27.0016 8.05874 26.7514 7.46408 26.5083 6.89929C25.6289 4.94316 24.2304 3.20326 22.4359 2.00825C21.9983 1.70949 21.5093 1.50036 21.0731 1.20019C22.9807 0.79331 25.0269 0.844526 26.8658 1.53308L26.8672 1.53451ZM25.7047 12.5159C25.8162 14.0395 26.2609 15.6756 25.5388 17.121C24.5707 15.2047 23.3196 13.3752 22.8834 11.2412C22.7605 10.5626 22.729 9.70331 23.3353 9.231C24.1046 8.68755 25.1098 8.8099 25.9992 8.86396C25.9606 10.086 25.5831 11.2853 25.7061 12.5159H25.7047ZM8.39827 21.5425C8.0508 21.9494 7.58178 22.4345 6.98979 22.3136C6.29771 22.1144 5.85729 21.4856 5.47121 20.9208C4.42879 19.262 3.80106 17.3884 3.22479 15.529C2.5799 13.3282 2.03653 11.0918 1.72337 8.81843C1.56751 7.0885 1.66474 5.23337 2.55416 3.69265C3.22051 2.52609 4.46311 1.78205 5.76864 1.53877C7.85919 1.13901 10.0027 1.56296 12.0088 2.17185C11.1164 3.13644 10.4425 4.28042 10.0327 5.52644C9.47313 7.19672 9.24678 8.95964 9.36633 10.7162C9.44212 11.9497 9.40923 13.1888 9.23621 14.4123C9.01886 16.0099 9.66376 17.653 10.8563 18.7314C10.0441 19.676 9.1833 20.5766 8.39684 21.544L8.39827 21.5425ZM10.2286 15.8193C10.0241 14.9145 10.2915 14.004 10.3215 13.0977C10.3916 12.072 10.3187 11.0449 10.2986 10.0191C11.2624 9.39887 12.3892 8.91375 13.5574 8.98061C13.8588 8.99366 14.1481 9.10193 14.3834 9.28971C14.6187 9.47748 14.7877 9.73499 14.8658 10.0248C15.3963 12.1261 15.5608 14.4649 14.5441 16.4552C14.1946 17.2245 13.8974 18.0163 13.6547 18.8253C11.9645 18.8424 10.5274 17.4197 10.2286 15.8193ZM15.4878 21.4444C14.4268 22.8741 12.3034 23.1473 10.7691 22.3691C11.5255 22.0205 12.4106 22.0476 13.1413 21.6179C13.8477 21.2395 14.128 20.4073 14.7886 19.9791C15.5079 19.878 16.0327 20.9408 15.4893 21.443L15.4878 21.4444ZM24.5879 19.7742C24.1847 20.4201 24.3262 21.2082 24.2276 21.9252C23.9959 23.9354 23.7686 25.9485 23.4397 27.9458C23.2838 28.9033 22.8749 29.9205 21.9669 30.3971C21.036 30.868 19.9549 31.1639 18.9082 31.0031C17.9144 30.8295 17.2881 29.9077 17.0064 29.01C16.8005 28.2574 16.7791 27.4707 16.7204 26.6953C16.6285 24.8241 16.6108 22.95 16.6675 21.0773C16.709 20.3461 16.3315 19.585 15.6752 19.2293C15.3577 19.0515 14.9859 19.0273 14.6313 18.9989C14.9102 17.6232 15.7524 16.4353 16.0412 15.061C16.4159 13.3609 16.2085 11.5912 15.8253 9.91244C15.638 9.07451 14.9974 8.33331 14.1451 8.12987C12.8325 7.80124 11.5084 8.31197 10.3344 8.85827C10.4831 6.96046 10.9936 5.01713 12.1618 3.47641C12.5947 2.90623 13.1372 2.42734 13.7578 2.0676C14.3784 1.70785 15.0646 1.47441 15.7767 1.38086C18.1246 1.08353 20.5898 1.72656 22.4559 3.18762C24.0142 4.40557 25.1977 6.03409 25.872 7.88802C24.7809 7.84961 23.5441 7.80551 22.6618 8.55951C21.861 9.231 21.7581 10.3762 21.9383 11.3379C22.3558 13.6255 23.7128 15.5703 24.7137 17.6274C24.9797 18.1097 25.3372 18.5308 25.6775 18.9633C25.2728 19.1667 24.821 19.3616 24.5908 19.7756L24.5879 19.7742ZM27.3963 21.3917C26.6756 21.4771 25.9263 21.5027 25.2314 21.2651C25.2342 20.8739 25.2128 20.4101 25.5288 20.1185C25.779 19.935 26.1351 19.7657 26.4239 19.9662C27.6537 20.6107 29.0836 20.2963 30.392 20.1384C29.5927 20.9123 28.4859 21.2737 27.3963 21.3917ZM23.6184 9.51695C23.3625 9.72608 23.6384 10.0391 23.8586 10.1372C24.392 10.4488 25.1227 10.0135 25.1399 9.4074C24.658 9.18405 24.0545 9.20681 23.6184 9.51695ZM14.178 10.4843C14.4054 10.3563 14.6456 10.0049 14.3825 9.79294C14.0079 9.48992 13.4631 9.43159 13.0069 9.55394C12.8596 9.60515 12.7052 9.70474 12.7352 9.88399C12.8411 10.4929 13.6604 10.8628 14.1766 10.4843H14.178Z" fill="#DDDDDD"/>
</svg>
