<svg width="33" height="32" viewBox="0 0 33 32" fill="none" xmlns="http://www.w3.org/2000/svg">
<path d="M11.074 15.4213C11.3927 15.3637 11.7158 15.3347 12.0395 15.3345L11.7794 15.3333H20.4313C20.8065 15.3333 21.1651 15.2819 21.507 15.1871C23.1211 14.7402 24.2857 13.309 24.2857 11.5485V4.27988C24.2857 2.21055 22.5232 0.656213 20.4283 0.312713C19.1007 0.0940465 17.1568 -0.00620349 15.8375 0.00029651C14.5185 0.00746318 13.2558 0.117297 12.1478 0.312713C8.88096 0.881297 8.28571 2.0773 8.28571 4.27988V6.66663H16.2857V7.99996H5.68737C2.71837 7.99996 0.309206 11.5475 0.286289 15.9368C0.286123 15.9579 0.285706 15.9789 0.285706 16C0.285706 16.7935 0.364039 17.56 0.509455 18.2836C1.17304 21.5891 3.23996 24 5.68737 24H6.95237V20.172C6.95237 17.9365 8.63121 15.861 11.074 15.4213ZM11.9237 5.25013C11.1244 5.25013 10.475 4.60138 10.475 3.79988C10.475 2.99455 11.1229 2.33988 11.9237 2.33988C12.7215 2.33988 13.3736 2.99446 13.3736 3.79988C13.3737 4.60138 12.7229 5.25013 11.9237 5.25013Z" fill="#DDDDDD"/>
<path d="M31.9483 13.2119C31.184 10.1684 29.2051 7.99997 26.884 7.99997H25.619V11.3893C25.619 14.2156 23.7619 16.2621 21.495 16.6127C21.2661 16.6485 21.0348 16.6665 20.8032 16.6666H12.1483C11.7813 16.6662 11.4159 16.7131 11.0609 16.8059C9.46737 17.2241 8.28571 18.55 8.28571 20.2696V27.5386C8.28571 29.6079 10.3671 30.8241 12.4091 31.4178C14.853 32.1287 17.5147 32.2568 20.4396 31.4178C22.3815 30.8628 24.2857 29.7411 24.2857 27.5386V25.3333H16.2857V24H26.884C28.9874 24 30.8096 22.2196 31.7019 19.6209C32.0752 18.5336 32.2857 17.3034 32.2857 16C32.2857 15.0193 32.1663 14.0801 31.9483 13.2119ZM20.608 26.5683C21.4071 26.5683 22.0564 27.2171 22.0564 28.0183C22.0564 28.8225 21.4071 29.4784 20.608 29.4784C19.8099 29.4784 19.158 28.8225 19.158 28.0183C19.158 27.2158 19.8085 26.5683 20.608 26.5683Z" fill="#DDDDDD"/>
</svg>
