<svg width="29" height="32" viewBox="0 0 29 32" fill="none" xmlns="http://www.w3.org/2000/svg">
<path d="M13.3026 13.5006C12.8212 13.7832 12.433 14.2046 12.1872 14.7115C11.9413 15.2184 11.8488 15.788 11.9214 16.3483C11.9939 16.9086 12.2283 17.4345 12.5948 17.8594C12.9613 18.2843 13.4436 18.5892 13.9805 18.7354C14.5175 18.8817 15.085 18.8628 15.6114 18.6811C16.1378 18.4994 16.5993 18.1631 16.9377 17.7147C17.2761 17.2664 17.4761 16.726 17.5124 16.1621C17.5488 15.5981 17.4198 15.0359 17.1418 14.5464C16.7691 13.8902 16.1552 13.4113 15.4352 13.2152C14.7153 13.0191 13.9481 13.1218 13.3026 13.5006ZM25.8998 16.6009C25.7153 16.3865 25.5206 16.1716 25.3157 15.956C25.4588 15.8031 25.5973 15.6503 25.7312 15.4976C28.2583 12.6108 29.3249 9.7157 28.3366 7.97518C27.3889 6.30638 24.57 5.80907 21.0409 6.50672C20.6933 6.57586 20.3476 6.65385 20.0038 6.7407C19.938 6.51005 19.868 6.28071 19.7938 6.0527C18.5966 2.38467 16.6627 -0.00126349 14.686 5.01976e-07C12.7906 0.000880499 10.9587 2.23534 9.79007 5.69198C9.6751 6.03298 9.56873 6.37683 9.47098 6.72352C9.24114 6.66618 9.01032 6.61322 8.77855 6.56464C5.05512 5.78739 2.05612 6.29929 1.06976 8.04079C0.123954 9.7108 1.11309 12.4405 3.47521 15.1961C3.70948 15.4688 3.95037 15.7353 4.1979 15.9958C3.9061 16.3014 3.62978 16.6068 3.37224 16.9105C1.06737 19.6273 0.134798 22.3123 1.07908 23.9751C2.0543 25.6927 5.01109 26.2541 8.60997 25.5341C8.90163 25.4753 9.19168 25.4092 9.48011 25.3357C9.58577 25.7107 9.70168 26.0824 9.82782 26.4509C10.9913 29.8382 12.8129 32.0007 14.7016 32C16.6522 31.9988 18.6075 29.6754 19.7922 26.146C19.8858 25.8671 19.9743 25.5775 20.0583 25.2792C20.4309 25.3735 20.8059 25.4571 21.1833 25.5301C24.6507 26.1971 27.4034 25.6725 28.346 24.0085C29.3193 22.2897 28.3158 19.4069 25.8998 16.6009ZM2.23493 8.72292C2.84217 7.65092 5.29305 7.2327 8.50791 7.90372C8.71338 7.94668 8.92236 7.99468 9.13485 8.04772C8.82098 9.45934 8.59952 10.8906 8.47191 12.332C7.31191 13.1617 6.20596 14.0668 5.16097 15.0417C4.93073 14.7997 4.70664 14.5517 4.4887 14.2979C2.46479 11.9368 1.66494 9.72927 2.23493 8.72292ZM8.35145 17.8878C7.54797 17.2693 6.80126 16.6356 6.12352 15.9982C6.80079 15.3649 7.54797 14.7333 8.34982 14.1164C8.32101 14.7448 8.30673 15.3737 8.30698 16.0031C8.30741 16.6316 8.32223 17.2598 8.35145 17.8878ZM8.35049 24.1928C6.98649 24.5011 5.57831 24.5517 4.19632 24.3418C3.81747 24.3118 3.4487 24.2032 3.11279 24.0225C2.77688 23.8419 2.48096 23.5932 2.24333 23.2917C1.67039 22.2827 2.41921 20.1269 4.39039 17.8034C4.63821 17.5122 4.89416 17.2286 5.15823 16.9526C6.20338 17.9326 7.31114 18.8413 8.47425 19.6727C8.60361 21.1325 8.82768 22.5821 9.14499 24.0119C8.88167 24.0788 8.61684 24.1391 8.35049 24.1928ZM19.5257 11.3299C18.9979 10.9917 18.4635 10.6644 17.9227 10.348C17.3905 10.0366 16.8518 9.73678 16.3068 9.44871C17.24 9.04978 18.1573 8.70906 19.0429 8.43142C19.2517 9.38869 19.4128 10.3561 19.5257 11.3299ZM11.0616 6.13632C12.0629 3.1745 13.5444 1.36748 14.6867 1.36699C15.9034 1.3664 17.4841 3.3162 18.5177 6.48318C18.5848 6.68963 18.6483 6.89725 18.7081 7.10603C17.3502 7.53424 16.0216 8.05334 14.7311 8.65994C13.4459 8.04621 12.1215 7.52132 10.7669 7.08884C10.8574 6.76893 10.9557 6.45142 11.0616 6.13632ZM10.4316 8.41438C11.3553 8.71004 12.2638 9.05288 13.1536 9.44157C12.0511 10.02 10.9771 10.6501 9.93161 11.3318C10.0579 10.311 10.226 9.33298 10.4316 8.41438ZM9.93391 20.6714C10.4553 21.0108 10.9843 21.3376 11.5209 21.6518C12.0683 21.9722 12.6229 22.2792 13.1849 22.5727C12.2883 22.9748 11.372 23.3299 10.4396 23.6366C10.2317 22.7052 10.0618 21.71 9.93391 20.6714ZM18.5196 25.7042C18.101 27.0596 17.4405 28.3251 16.5712 29.4374C16.3564 29.756 16.0795 30.0266 15.7579 30.2322C15.4362 30.4377 15.0765 30.5741 14.7009 30.6327C13.5549 30.6334 12.0922 28.8967 11.0972 26C10.98 25.6575 10.8722 25.3119 10.7738 24.9632C12.1349 24.5168 13.4647 23.977 14.754 23.3477C16.0552 23.9582 17.3943 24.4812 18.7629 24.9133C18.6881 25.1789 18.6071 25.4425 18.5196 25.7042ZM19.0897 23.5855C18.1939 23.3039 17.2633 22.9575 16.3166 22.5527C16.8503 22.2671 17.3878 21.9656 17.9292 21.648C18.4848 21.3218 19.0262 20.9875 19.5535 20.645C19.4484 21.6326 19.2937 22.614 19.0897 23.5855ZM19.7921 15.9972C19.7932 16.9689 19.7634 17.9398 19.7025 18.9099C18.9272 19.4434 18.1086 19.9643 17.257 20.4642C16.4088 20.962 15.5685 21.4196 14.7441 21.8336C13.8767 21.411 13.026 20.9555 12.1919 20.4672C11.3626 19.9819 10.5523 19.4651 9.76105 18.9168C9.68872 17.947 9.65229 16.9754 9.65174 16.0021C9.65108 15.0294 9.68691 14.0581 9.75885 13.0875C10.534 12.5493 11.3466 12.0288 12.1868 11.5356C13.0308 11.0401 13.8817 10.5845 14.7278 10.1716C15.5846 10.595 16.4259 11.0487 17.2518 11.5327C18.0805 12.017 18.8931 12.5282 19.6895 13.0666C19.7579 14.042 19.792 15.0188 19.7921 15.9972ZM21.2977 7.84871C24.3213 7.25076 26.6011 7.653 27.1722 8.65866C27.7806 9.73005 26.9087 12.0963 24.7269 14.5888C24.6064 14.7263 24.4812 14.8645 24.3517 15.0032C23.2886 14.0262 22.1613 13.1239 20.9777 12.3026C20.8582 10.877 20.645 9.46103 20.3396 8.06433C20.6652 7.98289 20.9845 7.91102 21.2977 7.84871ZM21.0933 14.0642C21.8917 14.6569 22.6593 15.2912 23.3931 15.9648C22.6625 16.6493 21.8973 17.2947 21.1006 17.898C21.125 17.2645 21.137 16.6307 21.1366 15.9966C21.1363 15.3523 21.1219 14.7082 21.0933 14.0642ZM27.1806 23.3262C26.6086 24.3361 24.3984 24.7572 21.433 24.1867C21.0932 24.1215 20.7445 24.0439 20.3869 23.9538C20.685 22.5392 20.8887 21.1056 20.9967 19.663C22.1783 18.8274 23.302 17.9101 24.3598 16.9176C24.5449 17.1131 24.721 17.3077 24.888 17.5014C25.8339 18.5471 26.5824 19.7608 27.0961 21.082C27.2603 21.4303 27.3526 21.8092 27.3671 22.1952C27.3817 22.5812 27.3182 22.9661 27.1806 23.3262Z" fill="#DDDDDD"/>
</svg>
