<svg width="32" height="32" viewBox="0 0 32 32" fill="none" xmlns="http://www.w3.org/2000/svg">
<path d="M0 0V32H32V0H0ZM18.5778 16.8889H14.4089V29.12H11.7422V16.8889H7.61778V14.6311H18.5778V16.8889ZM23.3689 29.3333C22.0094 29.3597 20.664 29.0546 19.4489 28.4444L20.0356 26.2578C21.1111 26.8401 22.3147 27.1456 23.5378 27.1467C25.2267 27.1467 26.2044 26.3556 26.2044 25.1733C26.2044 23.9911 25.4756 23.3956 23.6356 22.7644C21.2444 21.92 19.7156 20.64 19.7156 18.56C19.7156 16.1867 21.6978 14.4 24.8444 14.4C26.0432 14.366 27.2334 14.6125 28.32 15.12L27.6889 17.2533C26.7934 16.7909 25.7989 16.553 24.7911 16.56C23.1111 16.56 22.4 17.4489 22.4 18.3378C22.4 19.4489 23.2356 19.9733 25.1644 20.7111C27.6889 21.6711 28.8978 22.9333 28.8978 25.0133C28.8622 27.3244 27.1022 29.3333 23.3689 29.3333Z" fill="#DDDDDD"/>
</svg>
